<?xml version="1.0" encoding="UTF-8"?>
<!DOCTYPE svg PUBLIC "-//W3C//DTD SVG 1.1//EN" "http://www.w3.org/Graphics/SVG/1.1/DTD/svg11.dtd">
<!-- Creator: CorelDRAW Home & Student X7 -->
<svg xmlns="http://www.w3.org/2000/svg" xml:space="preserve" width="300mm" height="300mm" version="1.1" style="shape-rendering:geometricPrecision; text-rendering:geometricPrecision; image-rendering:optimizeQuality; fill-rule:evenodd; clip-rule:evenodd"
viewBox="0 0 30000 30000"
 xmlns:xlink="http://www.w3.org/1999/xlink">
 <defs>
  <style type="text/css">
   <![CDATA[
    .fil0 {fill:black}
   ]]>
  </style>
 </defs>
 <g id="Layer_x0020_1">
  <metadata id="CorelCorpID_0Corel-Layer"/>
  <path class="fil0" d="M15334 10329c416,-166 1855,-1062 2055,-1351 303,-438 -458,-1143 -988,-1009 -513,307 -872,1770 -1067,2360zm805 5611c-10,-218 -14,-496 -52,-709 -40,-303 -128,-366 -168,-505 220,-109 648,-88 849,-4 -70,188 -113,224 -169,499 -33,206 -54,493 -54,710 1367,-78 2577,-1233 2526,-2739 -43,-1270 -1054,-2239 -2322,-2436l0 3448 -153 0 0 -3468c-22,-2 -43,-4 -65,-6l0 3474 -153 0 0 -3483c-22,-1 -43,-1 -65,-2l0 3484 -153 0 0 -3482c-22,1 -43,2 -65,3l0 3480 -153 0 0 -3468c-1353,142 -2419,1153 -2434,2525 -17,1515 1158,2620 2631,2679zm-5379 -7497c-948,-7 -2001,77 -2672,647 -239,203 -479,504 -515,950 -42,526 146,756 312,1110 -34,-10 -71,-44 -309,-48 -768,-13 -1520,317 -1863,1028 -189,392 -174,940 21,1333 98,199 210,350 335,479 252,259 433,246 483,353 -156,79 -292,49 -574,238 -403,269 -487,807 -297,1168 449,853 2399,439 3147,944 344,232 785,1538 -1113,1542 -512,1 -993,-88 -1227,-410 -198,-272 -181,-852 438,-1012 -140,-285 -817,-515 -1277,-306 -369,168 -590,661 -454,1192 218,855 1453,1050 2474,1050 1144,0 2265,-272 2527,-1205 154,-550 -16,-1125 -288,-1467 -484,-610 -1266,-656 -2036,-752 -275,-35 -583,-39 -850,-83 -127,-21 -263,-74 -307,-155 -73,-135 20,-257 111,-309 168,-96 562,-126 776,-154 1077,-141 1912,-663 1909,-1815 -2,-1051 -473,-1003 -782,-1480 -140,-243 -292,-457 -337,-801 -48,-372 96,-686 277,-856 466,-441 2256,-772 2528,3 85,242 48,4664 48,5133 0,753 131,1120 -1122,1147 99,113 194,211 280,480 1712,-98 2226,279 4740,1307 5030,1770 6365,1003 6117,-3399 -28,-792 139,-1557 439,-1984 285,-407 468,-200 759,1 290,199 652,207 874,-42 431,-482 135,-1322 -871,-1148 -354,62 -594,224 -803,404 -335,289 -464,619 -532,666 -45,-65 -151,-929 -169,-1081l-1895 341 -8 334c473,8 693,86 802,502 94,359 166,1367 170,2311 3,777 -131,1690 -245,1986 -674,1741 -5652,399 -7019,-734 -232,-193 -205,-1035 -196,-1161l7 -6633c-82,17 -263,120 -382,162 -463,166 -940,227 -1431,224zm-3324 3170c-853,200 -767,2597 230,2425 473,-82 572,-804 553,-1348 -19,-521 -192,-1216 -783,-1077zm8469 2709l893 0 0 228 -893 0 0 -228z"/>
 </g>
</svg>
